<svg id="SvgjsSvg1035" xmlns="http://www.w3.org/2000/svg" version="1.1" xmlns:xlink="http://www.w3.org/1999/xlink" xmlns:svgjs="http://svgjs.com/svgjs" width="45" height="46" viewBox="0 0 45 46"><title>Shape 33</title><desc>Created with Avocode.</desc><defs id="SvgjsDefs1036"></defs><path id="SvgjsPath1037" d="M1694.08 535.108L1687.99 535.108L1687.99 530.5859999999999C1687.99 529.7139999999999 1687.29 529.0059999999999 1686.41 529.0059999999999C1685.5500000000002 529.0059999999999 1684.8400000000001 529.7139999999998 1684.8400000000001 530.5859999999999L1684.8400000000001 535.108L1670.17 535.108L1670.17 530.5859999999999C1670.17 529.7139999999999 1669.46 529.0059999999999 1668.5900000000001 529.0059999999999C1667.7200000000003 529.0059999999999 1667.0100000000002 529.7139999999998 1667.0100000000002 530.5859999999999L1667.0100000000002 535.108L1660.9300000000003 535.108C1657.6700000000003 535.108 1655.0000000000002 537.7779999999999 1655.0000000000002 541.048L1655.0000000000002 569.055C1655.0000000000002 572.324 1657.6700000000003 574.9939999999999 1660.9300000000003 574.9939999999999L1694.0800000000004 574.9939999999999C1697.3400000000004 574.9939999999999 1700.0000000000005 572.324 1700.0000000000005 569.055L1700.0000000000005 541.048C1700.0000000000005 537.778 1697.3400000000004 535.108 1694.0800000000004 535.108ZM1696.85 569.055C1696.85 570.5799999999999 1695.6 571.833 1694.08 571.833L1660.9299999999998 571.833C1659.3999999999999 571.833 1658.1499999999999 570.5799999999999 1658.1499999999999 569.055L1658.1499999999999 541.048C1658.1499999999999 539.522 1659.3999999999999 538.269 1660.9299999999998 538.269L1667.0099999999998 538.269L1667.0099999999998 540.449C1667.0099999999998 541.3199999999999 1667.7199999999998 542.029 1668.5899999999997 542.029C1669.4599999999996 542.029 1670.1699999999996 541.32 1670.1699999999996 540.449L1670.1699999999996 538.269L1684.7799999999995 538.269L1684.7799999999995 540.449C1684.7799999999995 541.3199999999999 1685.4899999999996 542.029 1686.3599999999994 542.029C1687.2299999999993 542.029 1687.9399999999994 541.32 1687.9399999999994 540.449L1687.9399999999994 538.269L1694.0199999999993 538.269C1695.5499999999993 538.269 1696.7899999999993 539.522 1696.7899999999993 541.048L1696.7899999999993 569.055ZM1669.24 549.276L1663.43 549.276C1662.5600000000002 549.276 1661.8500000000001 549.9839999999999 1661.8500000000001 550.856C1661.8500000000001 551.728 1662.5600000000002 552.436 1663.43 552.436L1669.24 552.436C1670.11 552.436 1670.82 551.7280000000001 1670.82 550.856C1670.82 549.984 1670.11 549.276 1669.24 549.276ZM1680.44 549.276L1674.5700000000002 549.276C1673.7000000000003 549.276 1672.9900000000002 549.9839999999999 1672.9900000000002 550.856C1672.9900000000002 551.728 1673.7000000000003 552.436 1674.5700000000002 552.436L1680.38 552.436C1681.25 552.436 1681.96 551.7280000000001 1681.96 550.856C1681.96 549.984 1681.31 549.276 1680.44 549.276ZM1669.24 563.988L1663.43 563.988C1662.5600000000002 563.988 1661.8500000000001 564.696 1661.8500000000001 565.567C1661.8500000000001 566.439 1662.5600000000002 567.148 1663.43 567.148L1669.24 567.148C1670.11 567.148 1670.82 566.4390000000001 1670.82 565.567C1670.82 564.696 1670.11 563.988 1669.24 563.988ZM1680.44 563.988L1674.5700000000002 563.988C1673.7000000000003 563.988 1672.9900000000002 564.696 1672.9900000000002 565.567C1672.9900000000002 566.439 1673.7000000000003 567.148 1674.5700000000002 567.148L1680.38 567.148C1681.25 567.148 1681.96 566.4390000000001 1681.96 565.567C1681.96 564.696 1681.31 563.988 1680.44 563.988ZM1669.24 556.632L1663.43 556.632C1662.5600000000002 556.632 1661.8500000000001 557.3399999999999 1661.8500000000001 558.212C1661.8500000000001 559.083 1662.5600000000002 559.7909999999999 1663.43 559.7909999999999L1669.24 559.7909999999999C1670.11 559.7909999999999 1670.82 559.083 1670.82 558.212C1670.82 557.34 1670.11 556.632 1669.24 556.632ZM1680.44 556.632L1674.5700000000002 556.632C1673.7000000000003 556.632 1672.9900000000002 557.3399999999999 1672.9900000000002 558.212C1672.9900000000002 559.083 1673.7000000000003 559.7909999999999 1674.5700000000002 559.7909999999999L1680.38 559.7909999999999C1681.25 559.7909999999999 1681.96 559.083 1681.96 558.212C1681.96 557.34 1681.31 556.632 1680.44 556.632ZM1691.58 549.276L1685.76 549.276C1684.89 549.276 1684.19 549.9839999999999 1684.19 550.856C1684.19 551.728 1684.89 552.436 1685.76 552.436L1691.58 552.436C1692.4499999999998 552.436 1693.1499999999999 551.7280000000001 1693.1499999999999 550.856C1693.1499999999999 549.984 1692.4499999999998 549.276 1691.58 549.276ZM1691.58 563.988L1685.76 563.988C1684.89 563.988 1684.19 564.696 1684.19 565.567C1684.19 566.439 1684.89 567.148 1685.76 567.148L1691.58 567.148C1692.4499999999998 567.148 1693.1499999999999 566.4390000000001 1693.1499999999999 565.567C1693.1499999999999 564.696 1692.4499999999998 563.988 1691.58 563.988ZM1691.58 556.632L1685.76 556.632C1684.89 556.632 1684.19 557.3399999999999 1684.19 558.212C1684.19 559.083 1684.89 559.7909999999999 1685.76 559.7909999999999L1691.58 559.7909999999999C1692.4499999999998 559.7909999999999 1693.1499999999999 559.083 1693.1499999999999 558.212C1693.1499999999999 557.34 1692.4499999999998 556.632 1691.58 556.632Z " fill="#ffffff" fill-opacity="1" transform="matrix(1,0,0,1,-1655,-529)"></path></svg>