<svg id="SvgjsSvg1017" xmlns="http://www.w3.org/2000/svg" version="1.1" xmlns:xlink="http://www.w3.org/1999/xlink" xmlns:svgjs="http://svgjs.com/svgjs" width="60" height="61" viewBox="0 0 60 61"><title>Shape 3</title><desc>Created with Avocode.</desc><defs id="SvgjsDefs1018"></defs><path id="SvgjsPath1019" d="M5055.22 209.952C5054.08 209.952 5053.16 210.876 5053.16 212.013C5053.16 213.151 5054.08 214.076 5055.22 214.076C5057.22 214.076 5058.860000000001 215.71099999999998 5058.860000000001 217.702L5058.860000000001 254.24599999999998C5058.860000000001 256.23699999999997 5057.22 257.871 5055.22 257.871L5011.76 257.871C5009.77 257.871 5008.13 256.23699999999997 5008.13 254.24599999999998L5008.13 217.702C5008.13 215.71099999999998 5009.77 214.076 5011.76 214.076C5012.900000000001 214.076 5013.83 213.15099999999998 5013.83 212.013C5013.83 210.876 5012.9 209.952 5011.76 209.952C5007.49 209.952 5003.99 213.436 5003.99 217.702L5003.99 254.24599999999998C5003.99 258.512 5007.49 261.995 5011.76 261.995L5055.22 261.995C5059.5 261.995 5062.990000000001 258.512 5062.990000000001 254.246L5062.990000000001 217.702C5062.990000000001 213.436 5059.500000000001 209.952 5055.22 209.952ZM5051.59 216.92L5051.59 204.051C5051.59 202.91299999999998 5050.67 201.98899999999998 5049.53 201.98899999999998C5048.38 201.98899999999998 5047.46 202.91299999999998 5047.46 204.051L5047.46 216.92C5047.46 218.057 5048.38 218.981 5049.53 218.981C5050.67 218.981 5051.59 218.057 5051.59 216.92ZM5035.56 216.92L5035.56 204.051C5035.56 202.91299999999998 5034.63 201.98899999999998 5033.490000000001 201.98899999999998C5032.35 201.98899999999998 5031.43 202.91299999999998 5031.43 204.051L5031.43 216.92C5031.43 218.057 5032.35 218.981 5033.490000000001 218.981C5034.630000000001 218.981 5035.56 218.057 5035.56 216.92ZM5019.53 216.92L5019.53 204.051C5019.53 202.91299999999998 5018.599999999999 201.98899999999998 5017.46 201.98899999999998C5016.32 201.98899999999998 5015.4 202.91299999999998 5015.4 204.051L5015.4 216.92C5015.4 218.057 5016.32 218.981 5017.46 218.981C5018.6 218.981 5019.53 218.057 5019.53 216.92ZM5037.34 238.035L5029.650000000001 238.035C5028.51 238.035 5027.580000000001 238.96 5027.580000000001 240.097C5027.580000000001 241.235 5028.510000000001 242.15900000000002 5029.650000000001 242.15900000000002L5037.27 242.15900000000002C5038.410000000001 242.15900000000002 5039.34 241.235 5039.34 240.097C5039.34 238.96 5038.4800000000005 238.035 5037.34 238.035ZM5027.58 230.499C5027.58 231.637 5028.51 232.561 5029.65 232.561L5037.2699999999995 232.561C5038.41 232.561 5039.339999999999 231.637 5039.339999999999 230.499C5039.339999999999 229.361 5038.409999999999 228.43699999999998 5037.2699999999995 228.43699999999998L5029.65 228.43699999999998C5028.509999999999 228.43699999999998 5027.58 229.361 5027.58 230.499ZM5012.97 230.499C5012.97 231.637 5013.900000000001 232.561 5015.04 232.561L5022.66 232.561C5023.8 232.561 5024.73 231.637 5024.73 230.499C5024.73 229.361 5023.799999999999 228.43699999999998 5022.66 228.43699999999998L5015.04 228.43699999999998C5013.9 228.43699999999998 5012.97 229.361 5012.97 230.499ZM5022.66 238.035L5015.04 238.035C5013.9 238.035 5012.97 238.96 5012.97 240.097C5012.97 241.235 5013.900000000001 242.15900000000002 5015.04 242.15900000000002L5022.66 242.15900000000002C5023.8 242.15900000000002 5024.73 241.235 5024.73 240.097C5024.73 238.96 5023.799999999999 238.035 5022.66 238.035ZM5037.34 247.634L5029.650000000001 247.634C5028.51 247.634 5027.580000000001 248.558 5027.580000000001 249.695C5027.580000000001 250.832 5028.510000000001 251.757 5029.650000000001 251.757L5037.27 251.757C5038.410000000001 251.757 5039.34 250.832 5039.34 249.695C5039.34 248.558 5038.4800000000005 247.634 5037.34 247.634ZM5022.66 247.634L5015.04 247.634C5013.9 247.634 5012.97 248.558 5012.97 249.695C5012.97 250.832 5013.900000000001 251.757 5015.04 251.757L5022.66 251.757C5023.8 251.757 5024.73 250.832 5024.73 249.695C5024.73 248.558 5023.799999999999 247.634 5022.66 247.634ZM5042.26 230.499C5042.26 231.637 5043.18 232.561 5044.320000000001 232.561L5051.950000000001 232.561C5053.090000000001 232.561 5054.010000000001 231.637 5054.010000000001 230.499C5054.010000000001 229.361 5053.090000000001 228.43699999999998 5051.950000000001 228.43699999999998L5044.320000000001 228.43699999999998C5043.18 228.43699999999998 5042.26 229.361 5042.26 230.499ZM5051.95 238.035L5044.32 238.035C5043.179999999999 238.035 5042.259999999999 238.96 5042.259999999999 240.097C5042.259999999999 241.235 5043.179999999999 242.15900000000002 5044.32 242.15900000000002L5051.95 242.15900000000002C5053.09 242.15900000000002 5054.01 241.235 5054.01 240.097C5054.01 238.96 5053.09 238.035 5051.95 238.035ZM5051.95 247.634L5044.32 247.634C5043.179999999999 247.634 5042.259999999999 248.558 5042.259999999999 249.695C5042.259999999999 250.832 5043.179999999999 251.757 5044.32 251.757L5051.95 251.757C5053.09 251.757 5054.01 250.832 5054.01 249.695C5054.01 248.558 5053.09 247.634 5051.95 247.634ZM5027.15 209.952L5023.799999999999 209.952C5022.659999999999 209.952 5021.739999999999 210.876 5021.739999999999 212.013C5021.739999999999 213.151 5022.659999999999 214.076 5023.799999999999 214.076L5027.15 214.076C5028.29 214.076 5029.219999999999 213.15099999999998 5029.219999999999 212.013C5029.219999999999 210.876 5028.289999999999 209.952 5027.15 209.952ZM5043.18 209.952L5039.84 209.952C5038.6900000000005 209.952 5037.77 210.876 5037.77 212.013C5037.77 213.151 5038.6900000000005 214.076 5039.84 214.076L5043.18 214.076C5044.320000000001 214.076 5045.25 213.15099999999998 5045.25 212.013C5045.25 210.876 5044.32 209.952 5043.18 209.952Z " fill="#ffffff" fill-opacity="1" transform="matrix(1,0,0,1,-5003,-201)"></path></svg>