<svg id="SvgjsSvg1032" xmlns="http://www.w3.org/2000/svg" version="1.1" xmlns:xlink="http://www.w3.org/1999/xlink" xmlns:svgjs="http://svgjs.com/svgjs" width="39" height="39" viewBox="0 0 39 39"><title>Rounded Rectangle 1 copy 5</title><desc>Created with Avocode.</desc><defs id="SvgjsDefs1033"></defs><path id="SvgjsPath1034" d="M1935.25 252.728L1950.495 267.9721L1965.7399999999998 252.728C1966.7099999999998 251.764 1968.2699999999998 251.764 1969.2299999999998 252.728C1970.1999999999998 253.691 1970.1999999999998 255.252 1969.2299999999998 256.21500000000003L1953.9840499999998 271.46095L1969.2399999999998 286.716C1970.1999999999998 287.67900000000003 1970.1999999999998 289.241 1969.2399999999998 290.205C1968.2699999999998 291.168 1966.7099999999998 291.168 1965.7499999999998 290.205L1950.4949999999997 274.95L1935.2399999999996 290.205C1934.2799999999995 291.168 1932.7199999999996 291.168 1931.7499999999995 290.205C1930.7899999999995 289.241 1930.7899999999995 287.679 1931.7499999999995 286.716L1947.0059499999995 271.46095L1931.7599999999995 256.21500000000003C1930.7999999999995 255.25200000000004 1930.7999999999995 253.69100000000003 1931.7599999999995 252.72800000000004C1932.7199999999996 251.76400000000004 1934.2799999999995 251.76400000000004 1935.2499999999995 252.72800000000004Z " fill="#ffffff" fill-opacity="1" transform="matrix(1,0,0,1,-1931,-252)"></path></svg>