<svg id="SvgjsSvg1026" xmlns="http://www.w3.org/2000/svg" version="1.1" xmlns:xlink="http://www.w3.org/1999/xlink" xmlns:svgjs="http://svgjs.com/svgjs" width="50" height="37" viewBox="0 0 50 37"><title>Shape 32</title><desc>Created with Avocode.</desc><defs id="SvgjsDefs1027"></defs><path id="SvgjsPath1028" d="M1465.04 548.545C1465.07 548.524 1465.09 548.5 1465.12 548.477L1465.29 548.321C1465.47 548.164 1465.6399999999999 548.005 1465.82 547.847C1465.98 547.702 1466.1299999999999 547.555 1466.28 547.404L1467.53 546.239C1467.8799999999999 545.9150000000001 1467.99 545.428 1467.87 544.9970000000001C1467.82 544.8270000000001 1467.7299999999998 544.666 1467.6 544.527C1467.2199999999998 544.1020000000001 1466.6 544.019 1466.12 544.296C1466.05 544.34 1465.9799999999998 544.392 1465.9099999999999 544.455L1464.8899999999999 545.403C1461.7399999999998 548.226 1458.59 551.048 1455.4499999999998 553.8720000000001C1454.7299999999998 554.5140000000001 1454.0199999999998 555.1690000000001 1453.2899999999997 555.787C1452.1399999999996 556.74 1450.8199999999997 557.206 1449.4999999999998 557.1750000000001C1448.1899999999998 557.206 1446.8599999999997 556.7400000000001 1445.7199999999998 555.787C1444.9799999999998 555.169 1444.2699999999998 554.514 1443.5499999999997 553.8720000000001C1440.3999999999996 551.0480000000001 1437.2599999999998 548.2260000000001 1434.1099999999997 545.403L1433.0899999999997 544.455C1433.0299999999997 544.393 1432.9499999999996 544.34 1432.8799999999997 544.296C1432.3999999999996 544.019 1431.7899999999997 544.1020000000001 1431.3999999999996 544.527C1431.2699999999995 544.666 1431.1899999999996 544.827 1431.1399999999996 544.9970000000001C1431.0099999999995 545.4280000000001 1431.1199999999997 545.9140000000001 1431.4699999999996 546.239L1432.7199999999996 547.404C1432.8699999999997 547.555 1433.0299999999995 547.702 1433.1899999999996 547.847C1433.3599999999997 548.005 1433.5399999999995 548.163 1433.7099999999996 548.321L1433.8799999999997 548.477C1433.8999999999996 548.5 1433.9299999999996 548.524 1433.9599999999996 548.545C1435.4999999999995 549.93 1437.0399999999995 551.304 1438.5799999999995 552.684C1439.1499999999994 553.1949999999999 1439.7199999999996 553.708 1440.2999999999995 554.233C1440.1999999999996 554.334 1440.1399999999994 554.4 1440.0799999999995 554.4609999999999C1437.6199999999994 556.8789999999999 1435.1499999999994 559.2949999999998 1432.6799999999994 561.7119999999999C1432.5799999999995 561.8169999999999 1432.4699999999993 561.9189999999999 1432.3799999999994 562.0359999999998C1432.0699999999995 562.4369999999998 1432.0499999999995 562.9479999999999 1432.3299999999995 563.3559999999999C1432.6099999999994 563.7649999999999 1433.1099999999994 563.9619999999999 1433.5799999999995 563.7849999999999C1433.8199999999995 563.6959999999998 1434.0399999999995 563.5179999999998 1434.2299999999996 563.3369999999999C1436.6799999999996 560.9479999999999 1439.1199999999997 558.5509999999999 1441.5699999999995 556.1559999999998C1441.7099999999996 556.0239999999999 1441.8399999999995 555.8949999999999 1441.9999999999995 555.7509999999999C1442.6699999999996 556.3589999999998 1443.3299999999995 556.9389999999999 1443.9699999999996 557.5209999999998C1445.2799999999995 558.6919999999999 1446.7899999999995 559.4399999999998 1448.5399999999995 559.6129999999998C1448.8699999999994 559.6439999999998 1449.1899999999996 559.6589999999999 1449.4999999999995 559.6539999999999C1449.8199999999995 559.6589999999999 1450.1399999999996 559.6439999999999 1450.4599999999996 559.6129999999998C1452.2099999999996 559.4389999999999 1453.7299999999996 558.6919999999998 1455.0299999999995 557.5209999999998C1455.6799999999996 556.9379999999999 1456.3299999999995 556.3589999999998 1457.0099999999995 555.7509999999999C1457.1599999999996 555.8949999999999 1457.2999999999995 556.0239999999999 1457.4299999999996 556.1559999999998C1459.8799999999997 558.5509999999998 1462.3199999999997 560.9479999999999 1464.7799999999995 563.3369999999999C1464.9599999999996 563.5189999999999 1465.1899999999996 563.6969999999999 1465.4199999999996 563.7849999999999C1465.8999999999996 563.9619999999999 1466.3899999999996 563.7649999999999 1466.6699999999996 563.3559999999999C1466.9499999999996 562.9479999999999 1466.9299999999996 562.4369999999999 1466.6199999999997 562.0359999999998C1466.5299999999997 561.9189999999999 1466.4199999999996 561.8159999999998 1466.3199999999997 561.7119999999999C1463.8499999999997 559.2949999999998 1461.3899999999996 556.8789999999999 1458.9199999999996 554.4609999999999C1458.8599999999997 554.3999999999999 1458.7999999999997 554.334 1458.7099999999996 554.233C1459.2899999999995 553.709 1459.8499999999997 553.1949999999999 1460.4199999999996 552.684C1461.9599999999996 551.304 1463.4999999999995 549.93 1465.0399999999995 548.545ZM1474 564.821L1474 543.1650000000001C1474 539.2080000000001 1470.78 535.989 1466.81 535.989L1432.19 535.989C1428.22 535.989 1424.99 539.2080000000001 1424.99 543.1650000000001L1424.99 564.82C1424.99 568.777 1428.22 571.9960000000001 1432.19 571.9960000000001L1466.81 571.9960000000001C1470.78 571.9960000000001 1474 568.777 1474 564.8210000000001ZM1432.19 538.648L1466.81 538.648C1469.31 538.648 1471.34 540.674 1471.34 543.1650000000001L1471.34 564.82C1471.34 567.311 1469.31 569.3380000000001 1466.81 569.3380000000001L1432.19 569.3380000000001C1429.69 569.3380000000001 1427.66 567.311 1427.66 564.82L1427.66 543.163C1427.66 540.673 1429.69 538.647 1432.19 538.647Z " fill="#ffffff" fill-opacity="1" transform="matrix(1,0,0,1,-1424,-535)"></path></svg>