<svg id="SvgjsSvg1038" xmlns="http://www.w3.org/2000/svg" version="1.1" xmlns:xlink="http://www.w3.org/1999/xlink" xmlns:svgjs="http://svgjs.com/svgjs" width="44" height="48" viewBox="0 0 44 48"><title>Shape 34</title><desc>Created with Avocode.</desc><defs id="SvgjsDefs1039"></defs><path id="SvgjsPath1040" d="M1884.73 569.202C1883.98 568.94 1883.23 568.678 1882.49 568.424L1882.17 568.312C1880.44 567.713 1878.65 567.093 1876.9 566.428C1876.13 566.135 1875.3000000000002 566.257 1874.72 566.749C1874.15 567.239 1873.92 568.009 1874.1200000000001 568.809C1874.17 569.007 1874.22 569.217 1874.2700000000002 569.4689999999999L1874.5100000000002 570.7579999999999L1874.1800000000003 570.728C1874.0800000000004 570.7199999999999 1873.9900000000002 570.713 1873.9000000000003 570.6999999999999C1866.6400000000003 569.6629999999999 1860.8100000000004 564.1059999999999 1859.4100000000003 556.8729999999999C1859.1600000000003 555.573 1859.0500000000004 554.2399999999999 1859.1000000000004 552.91C1859.2800000000004 548.125 1861.3100000000004 543.7389999999999 1864.8200000000004 540.559C1867.9300000000003 537.745 1871.8600000000004 536.117 1875.8800000000003 535.9739999999999C1876.9300000000003 535.9369999999999 1877.9800000000002 535.997 1879.0300000000004 536.151C1879.5000000000005 536.2189999999999 1879.9800000000005 536.31 1880.4500000000005 536.42C1881.4200000000005 536.644 1882.4300000000005 536.1129999999999 1882.7900000000004 535.192C1883.0100000000004 534.6370000000001 1882.9800000000005 534.016 1882.7000000000005 533.489C1882.4200000000005 532.964 1881.9400000000005 532.5880000000001 1881.3600000000006 532.4580000000001C1880.2000000000005 532.1930000000001 1879.0000000000007 532.0400000000001 1877.8100000000006 532.0000000000001C1874.0600000000006 531.8770000000001 1870.6500000000005 532.4710000000001 1867.6900000000007 533.7700000000001C1866.2500000000007 534.4030000000001 1864.7500000000007 535.3450000000001 1863.2400000000007 536.5730000000001L1862.9200000000008 536.8550000000001C1862.1800000000007 537.4740000000002 1861.5000000000007 538.1440000000001 1860.8700000000008 538.8510000000001C1855.9600000000007 544.4190000000001 1854.1100000000008 550.5750000000002 1855.3900000000008 557.1470000000002C1855.7000000000007 558.6920000000001 1856.1700000000008 560.2770000000002 1856.8200000000008 561.8560000000001C1859.3700000000008 568.1430000000001 1864.1200000000008 572.2930000000001 1870.9300000000007 574.1920000000001C1871.8700000000008 574.4560000000001 1872.8200000000008 574.6080000000002 1873.8500000000008 574.7730000000001C1874.3100000000009 574.8460000000001 1874.7900000000009 574.9240000000001 1875.2800000000009 575.0130000000001L1875.3300000000008 575.0230000000001L1875.6000000000008 576.3980000000001C1875.6600000000008 576.7180000000002 1875.7100000000007 576.9850000000001 1875.770000000001 577.2330000000002C1875.950000000001 578.0790000000002 1876.440000000001 578.6910000000001 1877.1100000000008 578.9120000000001C1877.2900000000009 578.9700000000001 1877.4700000000007 578.9990000000001 1877.6600000000008 578.9990000000001C1878.1700000000008 578.9990000000001 1878.6900000000007 578.7820000000002 1879.1600000000008 578.3720000000002C1881.2000000000007 576.5700000000002 1883.3000000000009 574.7000000000002 1885.4200000000008 572.8150000000002C1886.0700000000008 572.2310000000002 1886.3700000000008 571.4860000000002 1886.2300000000007 570.7730000000001C1886.1000000000006 570.0640000000002 1885.5400000000006 569.4910000000001 1884.7300000000007 569.2020000000001ZM1887.19 551.343C1887.0900000000001 550.64 1886.6100000000001 550.259 1885.75 550.29C1885.47 550.3 1885.2 550.322 1884.92 550.36C1884.39 550.433 1883.8700000000001 550.515 1883.3500000000001 550.596C1883.0100000000002 550.649 1882.66 550.702 1882.3200000000002 550.753C1881.3400000000001 550.898 1880.38 551.0350000000001 1879.4 551.1220000000001C1879.0500000000002 551.152 1878.68 551.1830000000001 1878.26 551.1750000000001C1878.21 551.1740000000001 1878.17 551.1740000000001 1878.12 551.172C1877.5 550.605 1876.6799999999998 550.291 1875.85 550.311C1875.03 550.33 1874.25 550.6600000000001 1873.62 551.278L1873.55 551.359C1873.2 551.724 1872.95 552.172 1872.8 552.6840000000001C1872.79 552.7400000000001 1872.78 552.7970000000001 1872.77 552.8470000000001C1872.7 553.118 1872.68 553.3880000000001 1872.68 553.6480000000001C1872.7 554.3140000000002 1872.91 554.9520000000001 1873.3 555.4910000000001C1873.35 555.5640000000001 1873.4099999999999 555.6330000000002 1873.47 555.714C1873.53 555.787 1873.6000000000001 555.855 1873.7 555.95C1873.75 556 1873.81 556.0490000000001 1873.8700000000001 556.0930000000001C1874.19 556.363 1874.5600000000002 556.5630000000001 1874.95 556.6890000000001C1875.29 556.796 1875.64 556.8460000000001 1876 556.839C1877.17 556.8130000000001 1878.23 556.1560000000001 1878.78 555.12C1878.97 555.004 1879.18 554.918 1879.41 554.826L1879.5600000000002 554.764C1880.2700000000002 554.469 1881.0100000000002 554.2280000000001 1881.7100000000003 554.0120000000001C1883.0900000000004 553.5830000000001 1884.5500000000002 553.181 1886.0600000000002 552.816C1887.1900000000003 552.542 1887.2500000000002 551.7760000000001 1887.1900000000003 551.3430000000001ZM1891.59 566.537C1891.1399999999999 566.13 1890.6699999999998 565.716 1890.2099999999998 565.303L1889.8299999999997 565.032C1889.5299999999997 564.8670000000001 1889.2299999999998 564.7850000000001 1888.8399999999997 564.807C1888.3999999999996 564.84 1887.9899999999998 565.046 1887.6999999999996 565.392C1887.1299999999997 566.0490000000001 1887.1599999999996 566.988 1887.7299999999996 567.663L1887.7199999999996 567.684L1888.3799999999997 568.28L1888.3899999999996 568.274L1889.3499999999997 569.131C1889.6899999999996 569.422 1890.0699999999997 569.5899999999999 1890.4699999999996 569.6139999999999C1890.9799999999996 569.646 1891.4499999999996 569.4449999999999 1891.8099999999995 569.045C1892.4699999999996 568.305 1892.3799999999994 567.25 1891.5899999999995 566.5369999999999ZM1892.4 541.406C1891.89 541.741 1891.3700000000001 542.087 1890.8600000000001 542.438L1890.5000000000002 542.741C1890.2700000000002 542.992 1890.1100000000001 543.264 1890.0400000000002 543.643C1889.9600000000003 544.081 1890.0500000000002 544.529 1890.3100000000002 544.9060000000001C1890.8000000000002 545.6220000000001 1891.7100000000003 545.8330000000001 1892.5000000000002 545.446L1892.5200000000002 545.461L1893.2600000000002 544.97L1893.2500000000002 544.965L1894.3200000000002 544.244C1894.68 543.99 1894.9500000000003 543.6560000000001 1895.0700000000002 543.277C1895.2300000000002 542.7900000000001 1895.15 542.274 1894.8600000000001 541.827C1894.3200000000002 540.998 1893.2800000000002 540.821 1892.4 541.406ZM1895.62 558.564C1895.04 558.387 1894.4399999999998 558.2099999999999 1893.85 558.0369999999999L1893.3899999999999 557.953C1893.05 557.932 1892.7399999999998 557.987 1892.3999999999999 558.1709999999999C1892.0199999999998 558.3889999999999 1891.7299999999998 558.7489999999999 1891.61 559.1899999999999C1891.3799999999999 560.026 1891.8 560.8639999999999 1892.6 561.231L1892.6 561.254L1893.4499999999998 561.513L1893.4499999999998 561.5060000000001L1894.6799999999998 561.8700000000001C1895.11 561.9900000000001 1895.5299999999997 561.9770000000001 1895.8999999999999 561.8290000000001C1896.3799999999999 561.6400000000001 1896.7199999999998 561.2550000000001 1896.8799999999999 560.7420000000001C1897.1599999999999 559.7900000000001 1896.6299999999999 558.873 1895.62 558.5640000000001ZM1895.91 549.623C1895.3100000000002 549.711 1894.69 549.8050000000001 1894.0800000000002 549.902L1893.63 550.023C1893.3100000000002 550.149 1893.0500000000002 550.33 1892.8300000000002 550.64C1892.5700000000002 551.003 1892.4700000000003 551.4499999999999 1892.5400000000002 551.901C1892.6800000000003 552.7589999999999 1893.4200000000003 553.338 1894.3000000000002 553.327L1894.3100000000002 553.348L1895.18 553.2189999999999L1895.18 553.212L1896.45 553.016C1896.89 552.942 1897.27 552.75 1897.54 552.4599999999999C1897.8899999999999 552.0869999999999 1898.04 551.5889999999999 1897.96 551.0579999999999C1897.82 550.0749999999999 1896.95 549.4719999999999 1895.91 549.6229999999999ZM1885.75 535.463C1885.44 535.981 1885.12 536.516 1884.8 537.053L1884.6 537.481C1884.5 537.808 1884.4699999999998 538.121 1884.56 538.496C1884.6699999999998 538.927 1884.95 539.293 1885.34 539.525C1886.08 539.963 1887 539.766 1887.55 539.077L1887.58 539.083L1888.04 538.323L1888.03 538.318L1888.69 537.21C1888.92 536.8240000000001 1889.01 536.4110000000001 1888.96 536.015C1888.9 535.505 1888.6200000000001 535.0699999999999 1888.16 534.79C1887.3200000000002 534.2729999999999 1886.3100000000002 534.557 1885.75 535.463Z " fill="#ffffff" fill-opacity="1" transform="matrix(1,0,0,1,-1854,-531)"></path></svg>