<svg id="SvgjsSvg1011" xmlns="http://www.w3.org/2000/svg" version="1.1" xmlns:xlink="http://www.w3.org/1999/xlink" xmlns:svgjs="http://svgjs.com/svgjs" width="53" height="64" viewBox="0 0 53 64"><title>Shape 2 copy 2</title><desc>Created with Avocode.</desc><defs id="SvgjsDefs1012"><clipPath id="SvgjsClipPath1016"><path id="SvgjsPath1015" d="M4758 264L4758 200L4811 200L4811 264ZM4789.68 260.99C4800.740000000001 260.99 4807.990000000001 260.207 4807.990000000001 249.721C4807.990000000001 241.306 4806.31 237.924 4800.200000000001 233.987C4799.820000000001 233.748 4799.4400000000005 233.636 4799.000000000001 233.636C4797.800000000001 233.636 4796.290000000001 234.489 4794.540000000001 235.477C4792.010000000001 236.91 4788.860000000001 238.692 4784.990000000001 238.692C4781.320000000001 238.692 4778.080000000001 236.967 4775.47 235.583C4772.95 234.244 4770.88 233.187 4769.54 234.001C4763.03 237.942 4761.99 241.221 4761.99 249.721C4761.99 254.66 4763.5599999999995 257.699 4766.94 259.285C4770.29 260.86 4775.169999999999 260.99 4780.3099999999995 260.99ZM4785.33 229.235C4792.16 229.235 4797.71 223.573 4797.71 216.615C4797.71 209.656 4792.16 203.996 4785.33 203.996C4778.5 203.996 4772.93 209.656 4772.93 216.615C4772.93 223.574 4778.5 229.235 4785.33 229.235Z " fill="#ffffff"></path></clipPath></defs><path id="SvgjsPath1013" d="M4772.93 216.615C4772.93 209.656 4778.5 203.996 4785.33 203.996C4792.16 203.996 4797.71 209.656 4797.71 216.615C4797.71 223.573 4792.16 229.235 4785.33 229.235C4778.5 229.235 4772.93 223.574 4772.93 216.615ZM4780.31 260.99C4775.17 260.99 4770.29 260.86 4766.9400000000005 259.285C4763.56 257.699 4761.990000000001 254.66000000000003 4761.990000000001 249.72100000000003C4761.990000000001 241.22100000000003 4763.030000000001 237.94200000000004 4769.540000000001 234.00100000000003C4770.880000000001 233.18700000000004 4772.950000000001 234.24400000000003 4775.470000000001 235.58300000000003C4778.080000000001 236.967 4781.3200000000015 238.69200000000004 4784.990000000002 238.69200000000004C4788.8600000000015 238.69200000000004 4792.010000000002 236.91000000000003 4794.540000000002 235.47700000000003C4796.290000000002 234.48900000000003 4797.800000000002 233.63600000000002 4799.000000000002 233.63600000000002C4799.440000000001 233.63600000000002 4799.8200000000015 233.74800000000002 4800.200000000002 233.98700000000002C4806.310000000001 237.92400000000004 4807.990000000002 241.306 4807.990000000002 249.72100000000003C4807.990000000002 260.20700000000005 4800.740000000002 260.99 4789.680000000001 260.99Z " fill="#ffffff" fill-opacity="0" transform="matrix(1,0,0,1,-4758,-200)"></path><path id="SvgjsPath1014" d="M4772.93 216.615C4772.93 209.656 4778.5 203.996 4785.33 203.996C4792.16 203.996 4797.71 209.656 4797.71 216.615C4797.71 223.573 4792.16 229.235 4785.33 229.235C4778.5 229.235 4772.93 223.574 4772.93 216.615ZM4780.31 260.99C4775.17 260.99 4770.29 260.86 4766.9400000000005 259.285C4763.56 257.699 4761.990000000001 254.66000000000003 4761.990000000001 249.72100000000003C4761.990000000001 241.22100000000003 4763.030000000001 237.94200000000004 4769.540000000001 234.00100000000003C4770.880000000001 233.18700000000004 4772.950000000001 234.24400000000003 4775.470000000001 235.58300000000003C4778.080000000001 236.967 4781.3200000000015 238.69200000000004 4784.990000000002 238.69200000000004C4788.8600000000015 238.69200000000004 4792.010000000002 236.91000000000003 4794.540000000002 235.47700000000003C4796.290000000002 234.48900000000003 4797.800000000002 233.63600000000002 4799.000000000002 233.63600000000002C4799.440000000001 233.63600000000002 4799.8200000000015 233.74800000000002 4800.200000000002 233.98700000000002C4806.310000000001 237.92400000000004 4807.990000000002 241.306 4807.990000000002 249.72100000000003C4807.990000000002 260.20700000000005 4800.740000000002 260.99 4789.680000000001 260.99Z " fill-opacity="0" fill="#ffffff" stroke-dasharray="0" stroke-linejoin="round" stroke-linecap="round" stroke-opacity="1" stroke="#ffffff" stroke-miterlimit="50" stroke-width="6" clip-path="url(&quot;#SvgjsClipPath1016&quot;)" transform="matrix(1,0,0,1,-4758,-200)"></path></svg>