<svg id="SvgjsSvg1000" xmlns="http://www.w3.org/2000/svg" version="1.1" xmlns:xlink="http://www.w3.org/1999/xlink" xmlns:svgjs="http://svgjs.com/svgjs" width="65" height="65" viewBox="0 0 65 65"><title>Shape 1 copy</title><desc>Created with Avocode.</desc><defs id="SvgjsDefs1001"></defs><path id="SvgjsPath1007" d="M5347.18 146.999C5357.820000000001 146.999 5369.900000000001 146.999 5369.900000000001 132.302C5369.900000000001 131.42 5369.870000000001 130.594 5369.830000000001 129.796C5373.590000000001 128.993 5377.990000000001 126.839 5377.990000000001 119.21699999999998C5377.990000000001 111.64299999999999 5375.52 109.74299999999998 5369.860000000001 106.14199999999998C5367.700000000001 104.77299999999998 5365.490000000001 106.00499999999998 5363.160000000001 107.30799999999998C5361.000000000001 108.51499999999997 5358.52 109.09599999999998 5355.56 108.90699999999998C5355.660000000001 108.73099999999998 5356.5 107.80099999999999 5356.6 107.62099999999998C5356.8 107.63099999999999 5357 107.65499999999999 5357.1900000000005 107.65499999999999C5361.960000000001 107.65499999999999 5369.460000000001 104.13099999999999 5369.460000000001 95.32709999999999C5369.460000000001 88.5298 5363.950000000001 82.99909999999998 5357.1900000000005 82.99909999999998C5354.39 82.99909999999998 5351.700000000001 83.96779999999998 5349.530000000001 85.72299999999998C5347.35 84.62309999999998 5344.910000000001 83.98819999999998 5342.31 83.98819999999998C5333.4400000000005 83.98819999999998 5326.22 91.25069999999998 5326.22 100.17699999999998C5326.22 106.85399999999998 5330.26 112.59899999999998 5336.01 115.06999999999998C5335.97 115.49599999999998 5335.9400000000005 115.96099999999998 5335.91 116.44599999999998C5334.66 115.90899999999998 5333.47 115.28899999999999 5332.34 114.69599999999998C5329.95 113.44399999999999 5327.900000000001 112.36299999999999 5325.92 112.36299999999999C5325.04 112.36299999999999 5324.24 112.58199999999998 5323.52 113.00999999999999C5315.42 117.853 5313.9800000000005 122.27499999999999 5313.9800000000005 132.302C5313.9800000000005 138.65099999999998 5316.22 142.775 5320.820000000001 144.91C5324.97 146.839 5330.700000000001 146.998 5336.700000000001 146.998L5347.18 146.998ZM5328.46 100.177C5328.46 92.49600000000001 5334.68 86.2472 5342.31 86.2472C5349.950000000001 86.2472 5356.17 92.49600000000001 5356.17 100.177C5356.17 107.858 5349.95 114.10600000000001 5342.31 114.10600000000001C5334.68 114.10600000000001 5328.46 107.858 5328.46 100.177ZM5336.7 144.741C5330.96 144.741 5325.5 144.597 5321.76 142.859C5317.99 141.108 5316.2300000000005 137.75400000000002 5316.2300000000005 132.30200000000002C5316.2300000000005 122.92000000000002 5317.400000000001 119.30100000000002 5324.67 114.95100000000002C5326.17 114.05300000000003 5328.4800000000005 115.21900000000002 5331.3 116.69800000000002C5334.21 118.22600000000003 5337.83 120.13000000000002 5341.9400000000005 120.13000000000002C5346.26 120.13000000000002 5349.780000000001 118.16200000000002 5352.620000000001 116.58100000000002C5354.570000000001 115.49000000000002 5356.250000000001 114.54800000000002 5357.610000000001 114.54800000000002C5358.1 114.54800000000002 5358.52 114.67100000000002 5358.9400000000005 114.93600000000002C5365.77 119.28200000000002 5367.650000000001 123.01400000000002 5367.650000000001 132.30200000000002C5367.650000000001 143.87600000000003 5359.540000000001 144.741 5347.18 144.741Z " fill="#ffffff" fill-opacity="1" transform="matrix(1,0,0,1,-5313,-82)"></path></svg>