<svg id="SvgjsSvg1020" xmlns="http://www.w3.org/2000/svg" version="1.1" xmlns:xlink="http://www.w3.org/1999/xlink" xmlns:svgjs="http://svgjs.com/svgjs" width="64" height="48" viewBox="0 0 64 48"><title>Shape 4</title><desc>Created with Avocode.</desc><defs id="SvgjsDefs1021"></defs><path id="SvgjsPath1022" d="M5310.06 255.999L5254.93 255.999C5252.77 255.999 5250.990000000001 254.236 5250.990000000001 252.083L5250.990000000001 212.916C5250.990000000001 210.762 5252.77 208.999 5254.93 208.999L5310.06 208.999C5312.22 208.999 5313.990000000001 210.762 5313.990000000001 212.916L5313.990000000001 252.083C5313.990000000001 254.236 5312.22 255.999 5310.06 255.999ZM5254.93 212.916L5254.93 252.083L5310.06 252.083L5310.06 212.916ZM5282.5 241.566C5281.41 241.566 5280.35 240.959 5279.13 239.764L5257.47 218.223C5256.7 217.459 5256.7 216.22500000000002 5257.47 215.461C5258.240000000001 214.698 5259.4800000000005 214.698 5260.25 215.461L5281.9 237.00300000000001C5282.16 237.258 5282.36 237.43400000000003 5282.469999999999 237.532C5282.589999999999 237.434 5282.789999999999 237.258 5283.039999999999 237.00300000000001L5304.699999999999 215.461C5305.469999999999 214.698 5306.709999999999 214.698 5307.479999999999 215.461C5308.249999999999 216.22500000000002 5308.249999999999 217.459 5307.479999999999 218.223L5285.819999999999 239.764C5284.6399999999985 240.959 5283.579999999999 241.566 5282.499999999999 241.566ZM5258.87 250.124C5258.36 250.124 5257.87 249.928 5257.47 249.557C5256.7 248.79299999999998 5256.7 247.559 5257.47 246.795L5268.3 236.02499999999998C5269.070000000001 235.26 5270.31 235.26 5271.08 236.02499999999998C5271.85 236.78799999999998 5271.85 238.022 5271.08 238.78499999999997L5260.25 249.55699999999996C5259.88 249.92799999999997 5259.38 250.12399999999997 5258.87 250.12399999999997ZM5306.12 250.124C5305.61 250.124 5305.12 249.928 5304.72 249.557L5293.89 238.785C5293.13 238.022 5293.13 236.78799999999998 5293.89 236.025C5294.660000000001 235.26000000000002 5295.900000000001 235.26000000000002 5296.67 236.025L5307.5 246.79500000000002C5308.27 247.55900000000003 5308.27 248.793 5307.5 249.55700000000002C5307.12 249.92800000000003 5306.63 250.12400000000002 5306.12 250.12400000000002Z " fill="#ffffff" fill-opacity="1" transform="matrix(1,0,0,1,-5250,-208)"></path></svg>