<svg id="SvgjsSvg1029" xmlns="http://www.w3.org/2000/svg" version="1.1" xmlns:xlink="http://www.w3.org/1999/xlink" xmlns:svgjs="http://svgjs.com/svgjs" width="46" height="43" viewBox="0 0 46 43"><title>Shape 2217</title><desc>Created with Avocode.</desc><defs id="SvgjsDefs1030"></defs><path id="SvgjsPath1031" d="M1436.76 272.171C1436.79 272.133 1436.82 272.094 1436.84 272.053C1436.86 272.024 1436.87 271.996 1436.8899999999999 271.967C1436.9099999999999 271.92199999999997 1436.9299999999998 271.875 1436.9399999999998 271.828C1436.9499999999998 271.798 1436.9599999999998 271.77 1436.9699999999998 271.73999999999995C1436.9799999999998 271.67699999999996 1436.9899999999998 271.61199999999997 1436.9899999999998 271.54499999999996C1436.9899999999998 271.53099999999995 1436.9999999999998 271.51699999999994 1436.9999999999998 271.501C1436.9999999999998 271.48699999999997 1436.9899999999998 271.47299999999996 1436.9899999999998 271.45799999999997C1436.9899999999998 271.392 1436.9799999999998 271.32599999999996 1436.9699999999998 271.263C1436.9599999999998 271.234 1436.9499999999998 271.20599999999996 1436.9399999999998 271.17699999999996C1436.9299999999998 271.12899999999996 1436.9099999999999 271.08199999999994 1436.8899999999999 271.03599999999994C1436.87 271.00699999999995 1436.86 270.9789999999999 1436.84 270.95099999999996C1436.82 270.909 1436.79 270.86999999999995 1436.76 270.83199999999994C1436.74 270.80699999999996 1436.72 270.7819999999999 1436.7 270.75899999999996C1436.65 270.715 1436.6100000000001 270.67499999999995 1436.56 270.638C1436.55 270.628 1436.54 270.616 1436.52 270.60699999999997L1430.3899999999999 266.424C1429.8899999999999 266.085 1429.2099999999998 266.209 1428.87 266.703C1428.52 267.198 1428.6499999999999 267.87399999999997 1429.1499999999999 268.214L1432.3799999999999 270.415L1407.58 270.415C1406.97 270.415 1406.48 270.90200000000004 1406.48 271.50100000000003C1406.48 272.10100000000006 1406.97 272.588 1407.58 272.588L1432.3799999999999 272.588L1429.1499999999999 274.78900000000004C1428.6499999999999 275.129 1428.5199999999998 275.80600000000004 1428.87 276.30000000000007C1429.08 276.60600000000005 1429.4199999999998 276.7710000000001 1429.77 276.7710000000001C1429.99 276.7710000000001 1430.2 276.70900000000006 1430.3899999999999 276.57900000000006L1436.52 272.3960000000001C1436.53 272.3880000000001 1436.55 272.3760000000001 1436.56 272.3660000000001C1436.61 272.3290000000001 1436.6499999999999 272.2890000000001 1436.7 272.2440000000001C1436.72 272.2200000000001 1436.74 272.1960000000001 1436.76 272.1710000000001ZM1422.62 276.239C1422.02 276.239 1421.53 276.72499999999997 1421.53 277.325L1421.53 286.961C1421.53 288.54400000000004 1420.23 289.832 1418.6299999999999 289.832L1396.08 289.832C1394.49 289.832 1393.1899999999998 288.544 1393.1899999999998 286.961L1393.1899999999998 256.044C1393.1899999999998 254.45999999999998 1394.4899999999998 253.17199999999997 1396.08 253.17199999999997L1418.6299999999999 253.17199999999997C1420.2299999999998 253.17199999999997 1421.53 254.45999999999998 1421.53 256.044L1421.53 265.40999999999997C1421.53 266.01099999999997 1422.02 266.49699999999996 1422.62 266.49699999999996C1423.2299999999998 266.49699999999996 1423.7199999999998 266.01099999999997 1423.7199999999998 265.40999999999997L1423.7199999999998 256.044C1423.7199999999998 253.26199999999997 1421.4399999999998 250.999 1418.6299999999999 250.999L1396.08 250.999C1393.28 250.999 1391 253.262 1391 256.044L1391 286.96C1391 289.741 1393.28 292.005 1396.08 292.005L1418.6299999999999 292.005C1421.4399999999998 292.005 1423.7199999999998 289.741 1423.7199999999998 286.96L1423.7199999999998 277.325C1423.7199999999998 276.72499999999997 1423.2299999999998 276.239 1422.62 276.239Z " fill="#ffffff" fill-opacity="1" transform="matrix(1,0,0,1,-1391,-250)"></path></svg>