<svg id="SvgjsSvg1008" xmlns="http://www.w3.org/2000/svg" version="1.1" xmlns:xlink="http://www.w3.org/1999/xlink" xmlns:svgjs="http://svgjs.com/svgjs" width="54" height="47" viewBox="0 0 54 47"><title>Rounded Rectangle 1 copy 2</title><desc>Created with Avocode.</desc><defs id="SvgjsDefs1009"></defs><path id="SvgjsPath1010" d="M4707.46 88.999L4755.53 88.999C4756.889999999999 88.999 4758 90.103 4758 91.46539999999999C4758 92.82739999999998 4756.89 93.93139999999998 4755.53 93.93139999999998L4707.46 93.93139999999998C4706.1 93.93139999999998 4704.99 92.82739999999998 4704.99 91.46539999999999C4704.99 90.103 4706.099999999999 88.999 4707.46 88.999ZM4707.45 109.547L4755.54 109.547C4756.9 109.547 4758 110.645 4758 111.999C4758 113.354 4756.9 114.451 4755.54 114.451L4707.45 114.451C4706.09 114.451 4704.99 113.354 4704.99 111.999C4704.99 110.645 4706.09 109.547 4707.45 109.547ZM4707.46 130.067L4755.53 130.067C4756.889999999999 130.067 4758 131.17100000000002 4758 132.53300000000002C4758 133.895 4756.89 134.99900000000002 4755.53 134.99900000000002L4707.46 134.99900000000002C4706.1 134.99900000000002 4704.99 133.895 4704.99 132.53300000000002C4704.99 131.17100000000002 4706.099999999999 130.067 4707.46 130.067Z " fill="#ffffff" fill-opacity="1" transform="matrix(1,0,0,1,-4704,-88)"></path></svg>