<svg id="SvgjsSvg1023" xmlns="http://www.w3.org/2000/svg" version="1.1" xmlns:xlink="http://www.w3.org/1999/xlink" xmlns:svgjs="http://svgjs.com/svgjs" width="32" height="37" viewBox="0 0 32 37"><title>Shape 7 copy 3</title><desc>Created with Avocode.</desc><defs id="SvgjsDefs1024"></defs><path id="SvgjsPath1025" d="M1951.99 921.984C1951.99 930.8050000000001 1944.8 937.999 1935.99 937.999C1927.13 937.999 1920 930.8050000000001 1920 921.984C1920 913.114 1927.13 905.969 1935.99 905.969C1944.8 905.969 1951.99 913.114 1951.99 921.984ZM1948.45 921.984C1948.45 915.085 1942.88 909.5160000000001 1935.99 909.5160000000001C1929.1 909.5160000000001 1923.54 915.085 1923.54 921.984C1923.54 928.8820000000001 1929.1 934.451 1935.99 934.451C1942.88 934.451 1948.45 928.8820000000001 1948.45 921.984ZM1921.03 907.595C1920.68 906.067 1921.77 904.7370000000001 1925.11 902.765C1928.51 900.8439999999999 1930.3799999999999 900.597 1931.4599999999998 901.633L1933.34 904.244C1928.8999999999999 905.032 1925.11 907.249 1922.2099999999998 910.551ZM1931.37 924.053L1934.32 921.49L1934.27 913.705C1934.52 911.537 1938.01 911.784 1937.91 913.606L1937.91 921.49C1937.91 923.116 1937.72 923.265 1937.13 923.7570000000001L1933.63 926.8620000000001C1931.91 928.1930000000001 1929.5900000000001 925.6300000000001 1931.3700000000001 924.0530000000001ZM1949.73 910.601C1946.77 907.299 1943.03 905.081 1938.55 904.293L1940.47 901.682C1941.51 900.6460000000001 1943.33 900.844 1946.77 902.816C1950.22 904.835 1951.2 906.1170000000001 1950.91 907.644Z " fill="#ffffff" fill-opacity="1" transform="matrix(1,0,0,1,-1920,-901)"></path></svg>