<svg id="SvgjsSvg1000" xmlns="http://www.w3.org/2000/svg" version="1.1" xmlns:xlink="http://www.w3.org/1999/xlink" xmlns:svgjs="http://svgjs.com/svgjs" width="53" height="63" viewBox="0 0 53 63"><title>Shape 2 copy 6</title><desc>Created with Avocode.</desc><defs id="SvgjsDefs1001"><clipPath id="SvgjsClipPath1010"><path id="SvgjsPath1009" d="M6142 2087L6142 2024L6195 2024L6195 2087ZM6173.68 2083.99C6184.740000000001 2083.99 6191.990000000001 2083.2099999999996 6191.990000000001 2072.72C6191.990000000001 2064.31 6190.31 2060.9199999999996 6184.1900000000005 2056.99C6183.820000000001 2056.75 6183.450000000001 2056.64 6183.000000000001 2056.64C6181.800000000001 2056.64 6180.290000000001 2057.49 6178.540000000001 2058.48C6176.010000000001 2059.91 6172.860000000001 2061.69 6168.990000000001 2061.69C6165.320000000001 2061.69 6162.070000000001 2059.9700000000003 6159.47 2058.58C6156.95 2057.24 6154.89 2056.19 6153.54 2057C6147.04 2060.94 6145.99 2064.22 6145.99 2072.72C6145.99 2077.66 6147.57 2080.7 6150.94 2082.29C6154.29 2083.86 6159.169999999999 2083.99 6164.3099999999995 2083.99ZM6169.32 2052.24C6176.16 2052.24 6181.719999999999 2046.5699999999997 6181.719999999999 2039.6099999999997C6181.719999999999 2032.6599999999996 6176.159999999999 2026.9999999999998 6169.32 2026.9999999999998C6162.49 2026.9999999999998 6156.929999999999 2032.6599999999999 6156.929999999999 2039.6099999999997C6156.929999999999 2046.5699999999997 6162.49 2052.24 6169.32 2052.24Z " fill="#ffffff"></path></clipPath></defs><path id="SvgjsPath1007" d="M6156.93 2039.61C6156.93 2032.6599999999999 6162.490000000001 2027 6169.320000000001 2027C6176.160000000001 2027 6181.72 2032.66 6181.72 2039.61C6181.72 2046.57 6176.16 2052.24 6169.320000000001 2052.24C6162.490000000001 2052.24 6156.93 2046.5699999999997 6156.93 2039.6099999999997ZM6164.31 2083.99C6159.17 2083.99 6154.29 2083.8599999999997 6150.9400000000005 2082.29C6147.570000000001 2080.7 6145.990000000001 2077.66 6145.990000000001 2072.72C6145.990000000001 2064.22 6147.040000000001 2060.9399999999996 6153.540000000001 2057C6154.890000000001 2056.19 6156.950000000001 2057.24 6159.470000000001 2058.58C6162.0700000000015 2059.97 6165.3200000000015 2061.69 6168.990000000002 2061.69C6172.8600000000015 2061.69 6176.010000000002 2059.91 6178.540000000002 2058.48C6180.290000000002 2057.4900000000002 6181.800000000002 2056.64 6183.000000000002 2056.64C6183.450000000002 2056.64 6183.8200000000015 2056.75 6184.190000000001 2056.99C6190.310000000001 2060.9199999999996 6191.990000000002 2064.31 6191.990000000002 2072.72C6191.990000000002 2083.2099999999996 6184.740000000002 2083.99 6173.680000000001 2083.99Z " fill="#5b6779" fill-opacity="0" transform="matrix(1,0,0,1,-6142,-2024)"></path><path id="SvgjsPath1008" d="M6156.93 2039.61C6156.93 2032.6599999999999 6162.490000000001 2027 6169.320000000001 2027C6176.160000000001 2027 6181.72 2032.66 6181.72 2039.61C6181.72 2046.57 6176.16 2052.24 6169.320000000001 2052.24C6162.490000000001 2052.24 6156.93 2046.5699999999997 6156.93 2039.6099999999997ZM6164.31 2083.99C6159.17 2083.99 6154.29 2083.8599999999997 6150.9400000000005 2082.29C6147.570000000001 2080.7 6145.990000000001 2077.66 6145.990000000001 2072.72C6145.990000000001 2064.22 6147.040000000001 2060.9399999999996 6153.540000000001 2057C6154.890000000001 2056.19 6156.950000000001 2057.24 6159.470000000001 2058.58C6162.0700000000015 2059.97 6165.3200000000015 2061.69 6168.990000000002 2061.69C6172.8600000000015 2061.69 6176.010000000002 2059.91 6178.540000000002 2058.48C6180.290000000002 2057.4900000000002 6181.800000000002 2056.64 6183.000000000002 2056.64C6183.450000000002 2056.64 6183.8200000000015 2056.75 6184.190000000001 2056.99C6190.310000000001 2060.9199999999996 6191.990000000002 2064.31 6191.990000000002 2072.72C6191.990000000002 2083.2099999999996 6184.740000000002 2083.99 6173.680000000001 2083.99Z " fill-opacity="0" fill="#ffffff" stroke-dasharray="0" stroke-linejoin="round" stroke-linecap="round" stroke-opacity="1" stroke="#5b6779" stroke-miterlimit="50" stroke-width="6" clip-path="url(&quot;#SvgjsClipPath1010&quot;)" transform="matrix(1,0,0,1,-6142,-2024)"></path></svg>